<svg id="DISEÑO" xmlns="http://www.w3.org/2000/svg" viewBox="0 0 397.89 397.89"><defs><style>.cls-1{fill:#528c90;}</style></defs><path class="cls-1" d="M180.22,162.68c0-.44-.24-.69-.67-1A17,17,0,0,1,177,159.9a16.73,16.73,0,0,1-4.68-7.51,10.73,10.73,0,0,1-.46-5.24,6.86,6.86,0,0,1,1.55-3.3c1.7-2,6.39-3.22,7.63-1a7.87,7.87,0,0,1,.91,3.8c.07,2.61-.19,5.3.5,7.84.34,1.26.47,2.61,1.93,3.49a2.78,2.78,0,0,0,1,.25c3.8.33,5,.27,6.46-3.46,1.16-2.9,1.25-5.77,1.59-8.66a14.69,14.69,0,0,1,1.64-5.92c1.73-3.07,6.08-4.16,9.07-4.08,3.21.08,4.61,1.46,5.19,3.25,1.46,4.43.42,9.15-3.83,13.79a30.59,30.59,0,0,1-13.19,9c-.69.23-.66.76,0,1.06a31,31,0,0,1,3.09,1.59,23.17,23.17,0,0,1,7.82,9.06A45.53,45.53,0,0,1,207.83,188c.73,4.34.87,8.59-.67,12.34a7.34,7.34,0,0,1-6.06,4.83c-4.64.77-10.33-2.53-11.61-6.38a5.64,5.64,0,0,1-.08-4c.6-1.44,1.38-2.83,2.09-4.27a15.86,15.86,0,0,0,.62-13.74c-.92-2.19-2.33-4.26-3.43-6.32-.67-1.25-1.24-2.5-1.86-3.71-.06-.13-.32-.33-.41-.31a1.31,1.31,0,0,0-.66.31c-.68.68-1.27,1.38-1.95,2a17.53,17.53,0,0,1-1.58,1.23,14.38,14.38,0,0,0-5.51,8,28.94,28.94,0,0,0-.09,12.06,9.9,9.9,0,0,1,.16,2.85c-.33,2.62-3.18,3-5.89,1a7.37,7.37,0,0,1-2.14-2.49,12.55,12.55,0,0,1-1.41-6.89,29.48,29.48,0,0,1,5.51-15.28c1.59-2.34,3.56-4.59,7.58-5.4A6,6,0,0,1,180.22,162.68Z"/><path class="cls-1" d="M117.31,243.09c11.13,2.57,23.68,3.18,37.34,1.72,22.95-2.46,43.41-9.17,62.17-20.63.4-.25.89-.53,1.42-.84,4.85-2.86,12.24-7.21,12.56-11.91.13-2-1.07-3.3-3.3-3.68-3.89-.68-9,2-10.44,2.85a125.06,125.06,0,0,1-33.76,13.55c-15.83,3.67-30.4,4.11-43.32,1.43a75.46,75.46,0,0,1-12.26-3.64c-15.82-6.21-24.7-16.37-26.81-30.16s3.8-28.79,17.62-44.91c8.24-9.61,19-18.34,32-26a196.67,196.67,0,0,1,36.8-16.69c23.36-8,45.63-11.62,66.14-10.67l1.7.09a108.69,108.69,0,0,1,34.91,7.73c16.82,6.91,28,17.51,32.73,31.54.24.71.43,1.46.63,2.25a19.89,19.89,0,0,0,1.46,4.35,5.33,5.33,0,0,0,4.54,2.89h0a12.81,12.81,0,0,0,7.48-1.88c3.28-1.92,5.79-5.2,6.07-7.95a39.24,39.24,0,0,0-.86-11.72,48.41,48.41,0,0,0-9.38-20.33c-12.79-16.59-34.94-26.57-60.25-27.82-23.83-.92-43,.87-62.46,5.67a253.43,253.43,0,0,0-88.57,40.58c-19,13.7-32.14,27.27-40.56,41.72-10.62,18.2-12.91,35.19-6.7,50.88C78.34,222,86.71,230.44,99.33,236.7A82.79,82.79,0,0,0,117.31,243.09Z"/><path class="cls-1" d="M127.65,271.11a168.29,168.29,0,0,0,33.78-1,212.49,212.49,0,0,0,59.13-15.7,207.63,207.63,0,0,0,47.28-28.06c18.92-15.13,32.28-31.84,39.32-49.37,7.24-18,5.58-34.16-4.71-47.56-13.68-17.8-35.41-26.4-63.62-26.13a157.7,157.7,0,0,0-16.4,1.06l-.39.05a163,163,0,0,0-73.78,27.34c-8,5.47-14,10.68-17.84,15.53-1.23,1.56-1.77,2.84-1.53,3.61.17.52.65.81,1.41.85a2.6,2.6,0,0,0,.48,0,7.29,7.29,0,0,0,1.62-.32c2.73-.79,5.13-2.94,7.26-4.84l1-.92c.53-.47,1-.84,1.37-1.13a114.74,114.74,0,0,1,11.39-7.64,102.42,102.42,0,0,1,15.06-7.35,150,150,0,0,1,38.76-9.73,106.49,106.49,0,0,1,11.45-.54,85.66,85.66,0,0,1,33,6.64c12.52,5.33,20.6,13.47,23.75,24.2,4.53,15.43-.29,32.15-14.24,49.23-12.95,15.85-30.33,28.67-52.58,39a182.2,182.2,0,0,1-43.89,14.06,151,151,0,0,1-36,2.46c-3.16-.18-6.29-.49-9.32-.91-1.85-.26-3.69-.56-5.46-.89a87.48,87.48,0,0,1-26.27-9.19c-10.5-5.82-17.32-12.49-21-20.42a38.53,38.53,0,0,1-1.74-4.75c-.35-1.12-.72-2.28-1.15-3.39a1.45,1.45,0,0,0-1.2-1.07h-.21c-1,0-2.05.67-3.14,2A6.77,6.77,0,0,0,58,221.41a28,28,0,0,0,2.79,10.1l.42,1c3.85,9,10.45,16.75,19.76,23.17A87.44,87.44,0,0,0,112.91,269c2.78.59,5.68,1.08,8.63,1.46C123.52,270.73,125.58,271,127.65,271.11Z"/><path class="cls-1" d="M52,317.55h-2.9v-7.47c0-4.93,3.14-8,8-8v2.8c-3,0-5.08,1.86-5.08,4.85Z"/><path class="cls-1" d="M61.06,314.26a1.8,1.8,0,1,1-2,1.79A1.76,1.76,0,0,1,61.06,314.26Z"/><path class="cls-1" d="M86.5,295.92h-10v21.93H86.8c6.34,0,10.79-4.45,10.79-11S93.14,295.92,86.5,295.92Zm.21,19.22H79.43V298.63H86.5c5.06,0,8.16,3.2,8.16,8.25S91.56,315.14,86.71,315.14Z"/><path class="cls-1" d="M34.31,295.92h-10v21.93H34.61c6.34,0,10.79-4.45,10.79-11S41,295.92,34.31,295.92Zm.21,19.22H27.24V298.63h7.07c5.06,0,8.16,3.2,8.16,8.25S39.37,315.14,34.52,315.14Z"/><path class="cls-1" d="M103.08,295.92a1.68,1.68,0,1,1-1.74,1.67A1.63,1.63,0,0,1,103.08,295.92Zm-1.43,6.39h2.89v15.24h-2.89Z"/><path class="cls-1" d="M111.46,310.27a4.85,4.85,0,0,0,5.18,4.93,4.53,4.53,0,0,0,4.69-3.41h3c-.67,3.81-3.5,6.06-7.7,6.06-4.82,0-8-3.17-8-7.92s3.2-7.92,8-7.92c4.59,0,7.73,2.8,7.7,7.4v.86Zm9.81-2.23a4.39,4.39,0,0,0-4.67-3.56,5,5,0,0,0-4.93,3.56Z"/><path class="cls-1" d="M135.59,302c4.54,0,7.56,2.8,7.56,6.82s-2.32,5.67-3.94,5.67v.27A4,4,0,0,1,143.3,319c0,4.05-2.87,6.46-7.56,6.46-4.84,0-7.55-2.59-7.55-7.16h2.89c0,2.92,1.62,4.45,4.66,4.45s4.66-1.35,4.66-3.87c0-2.87-3-2.87-4.81-2.87-4.54,0-7.56-2.8-7.56-7S131.05,302,135.59,302Zm0,11.3c3,0,4.66-1.19,4.66-4.29,0-2.69-1.8-4.3-4.66-4.3s-4.66,1.65-4.66,4.3S132.73,313.31,135.59,313.31ZM142.17,299a1.81,1.81,0,1,1,0,3.6,1.81,1.81,0,1,1,0-3.6Z"/><path class="cls-1" d="M155,302c4.82,0,8,3.17,8,7.92s-3.19,7.92-8,7.92-8-3.17-8-7.92S150.22,302,155,302Zm0,13.13a5.21,5.21,0,1,0-5.12-5.21A4.88,4.88,0,0,0,155,315.14Z"/><path class="cls-1" d="M175.42,296.22h2.92V305h12.77v-8.77H194v21.33h-2.92v-9.87H178.34v9.87h-2.92Z"/><path class="cls-1" d="M200.65,310.27a4.85,4.85,0,0,0,5.18,4.93,4.52,4.52,0,0,0,4.69-3.41h3c-.67,3.81-3.51,6.06-7.71,6.06-4.81,0-8-3.17-8-7.92s3.2-7.92,8-7.92c4.6,0,7.74,2.8,7.71,7.4v.86Zm9.81-2.23a4.38,4.38,0,0,0-4.66-3.56,5,5,0,0,0-4.94,3.56Z"/><path class="cls-1" d="M220.12,317.55h-2.89v-7.47c0-4.93,3.14-8,8-8v2.8c-3.05,0-5.09,1.86-5.09,4.85Z"/><path class="cls-1" d="M231.7,317.55h-2.89v-7.86c0-4.6,3.07-7.68,7.83-7.68a7.26,7.26,0,0,1,7.67,7.68v7.86h-2.92v-8.11a4.85,4.85,0,0,0-9.69,0Z"/><path class="cls-1" d="M256.08,302c4.81,0,8,3.17,8,7.92v7.62H261.2v-3l-.31,0v.27c0,1.22-1.83,3-5.42,3-4.39,0-7.4-3.08-7.4-7.74C248.07,305.18,251.23,302,256.08,302ZM256,315.14c3.77,0,5.18-2.13,5.18-5.21s-1.95-5.21-5.09-5.21a4.88,4.88,0,0,0-5.12,5.21C251,313.13,252.85,315.14,256,315.14Zm-3.2-16.24,4.93-3.75,1.71,1-5.21,3.53Z"/><path class="cls-1" d="M270.74,317.55h-2.9v-7.86c0-4.6,3.08-7.68,7.83-7.68a7.26,7.26,0,0,1,7.68,7.68v7.86h-2.93v-8.11a4.84,4.84,0,0,0-9.68,0Z"/><path class="cls-1" d="M294.5,302c3.6,0,5.43,1.77,5.43,3v.27h.3V294.7h2.89v15.23c0,4.75-3.19,7.92-8,7.92s-8-3.17-8-8.13C287.1,305.09,290.12,302,294.5,302Zm.61,13.13c3.14,0,5.09-2,5.09-5.21s-1.4-5.21-5.18-5.21c-3.14,0-5,2-5,5.21A4.89,4.89,0,0,0,295.11,315.14Z"/><path class="cls-1" d="M309.77,310.27A4.85,4.85,0,0,0,315,315.2a4.52,4.52,0,0,0,4.69-3.41h3c-.68,3.81-3.51,6.06-7.71,6.06-4.82,0-8-3.17-8-7.92s3.2-7.92,8-7.92c4.6,0,7.73,2.8,7.71,7.4v.86Zm9.81-2.23a4.38,4.38,0,0,0-4.66-3.56A5,5,0,0,0,310,308Z"/><path class="cls-1" d="M335,304.9h-9.11v-2.59h12.61v2.59L329.67,315h9.11v2.59H326.17V315Z"/><path class="cls-1" d="M362.63,299.43H351.2v-3.3h15.74v3.3l-11.43,14.8h11.43v3.3H351.2v-3.3Z"/><path class="cls-1" d="M371.28,313.71a2.07,2.07,0,1,1-2.23,2.05A2,2,0,0,1,371.28,313.71Z"/></svg>