<svg id="DISEÑO" xmlns="http://www.w3.org/2000/svg" viewBox="0 0 932.21 665.05"><defs><style>.cls-1{fill:#528c90;}</style></defs><path class="cls-1" d="M428.75,234.62c0-.88-.47-1.38-1.35-1.91a34.87,34.87,0,0,1-5.15-3.63,33.17,33.17,0,0,1-9.33-15,21.24,21.24,0,0,1-.94-10.46,13.79,13.79,0,0,1,3.11-6.57c3.39-4.06,12.74-6.42,15.22-2a16.09,16.09,0,0,1,1.81,7.58c.13,5.22-.38,10.58,1,15.66.68,2.51.93,5.19,3.85,7a5.48,5.48,0,0,0,2.06.49c7.58.67,9.9.54,12.88-6.9,2.32-5.78,2.51-11.51,3.18-17.27.44-3.85,1-7.72,3.27-11.81,3.45-6.13,12.13-8.31,18.1-8.15,6.4.17,9.19,2.92,10.36,6.48,2.89,8.85.83,18.27-7.66,27.51-7,7.66-15.06,14.16-26.3,17.87-1.38.45-1.32,1.51-.07,2.11a58.67,58.67,0,0,1,6.17,3.17c7.49,4.89,11.94,11.22,15.6,18.07a91.31,91.31,0,0,1,9.28,28.27c1.45,8.65,1.72,17.14-1.34,24.62-1.94,4.72-5.24,8.48-12.1,9.62-9.25,1.55-20.61-5-23.16-12.71-1-3-1.15-5.73-.16-8.07,1.22-2.88,2.76-5.64,4.19-8.5,4.15-8.35,5.33-17.58,1.22-27.41-1.83-4.37-4.65-8.52-6.85-12.63-1.32-2.48-2.45-5-3.69-7.4-.13-.25-.65-.65-.83-.61a2.8,2.8,0,0,0-1.32.62c-1.34,1.35-2.52,2.76-3.88,4.05-.94.89-2.1,1.65-3.14,2.46-5.93,4.58-9.48,9.86-11,16-1.9,7.63-1.65,15.63-.18,24.06a20,20,0,0,1,.31,5.68c-.65,5.23-6.33,6-11.74,2a14.49,14.49,0,0,1-4.27-5,25.15,25.15,0,0,1-2.83-13.73c.57-11,4.52-20.92,11-30.49,3.16-4.67,7.1-9.16,15.11-10.77A12.77,12.77,0,0,1,428.75,234.62Z"/><path class="cls-1" d="M303.25,395c22.2,5.14,47.23,6.35,74.5,3.43,45.78-4.89,86.59-18.28,124-41.14l2.83-1.68c9.69-5.71,24.43-14.38,25.06-23.75.26-3.91-2.14-6.59-6.59-7.36-7.76-1.34-17.91,4-20.82,5.7C480,343,457.3,352.05,434.9,357.24c-31.59,7.33-60.65,8.21-86.44,2.86A150.24,150.24,0,0,1,324,352.84c-31.57-12.39-49.29-32.65-53.49-60.17s7.57-57.43,35.16-89.59c16.44-19.16,37.81-36.58,63.79-51.87a390.75,390.75,0,0,1,73.42-33.28c46.59-15.87,91-23.2,131.92-21.3l3.4.18a217.46,217.46,0,0,1,69.65,15.43c33.56,13.79,55.79,34.93,65.29,62.91.48,1.42.86,2.91,1.26,4.5a39.68,39.68,0,0,0,2.91,8.67c1.74,3.4,4.79,5.34,9.06,5.77h0a25.66,25.66,0,0,0,14.91-3.75c6.56-3.84,11.55-10.37,12.12-15.86.87-8.34-.32-16.19-1.73-23.39A96.68,96.68,0,0,0,733,110.53C707.47,77.45,663.28,57.54,612.8,55c-47.55-1.83-85.79,1.74-124.61,11.3-66,16.25-124.92,43.57-176.68,81-37.86,27.34-64.11,54.41-80.92,83.22-21.18,36.32-25.76,70.22-13.36,101.51,8.27,20.86,25,37.77,50.15,50.24A164.05,164.05,0,0,0,303.25,395Z"/><path class="cls-1" d="M323.88,450.93c20.5,1.64,43.15,1,67.39-2,42.45-5.25,81.23-15.42,118-31.31,34.91-15.12,66.79-34,94.32-56,37.73-30.18,64.39-63.53,78.43-98.49,14.46-36,11.14-68.15-9.39-94.87-27.29-35.53-70.64-52.68-126.9-52.14a311.65,311.65,0,0,0-32.74,2.13l-.77.09c-54.81,6.46-103.94,25-147.19,54.55-16,10.89-27.88,21.29-35.57,31-2.46,3.1-3.55,5.66-3.06,7.19.33,1,1.3,1.63,2.81,1.71.3,0,.62,0,1,0a16.6,16.6,0,0,0,3.23-.64c5.45-1.58,10.24-5.87,14.49-9.66.69-.62,1.38-1.24,2.06-1.83,1.08-.94,2-1.68,2.75-2.27a227.48,227.48,0,0,1,22.71-15.23,202.85,202.85,0,0,1,30.05-14.66c26.87-10.39,52.91-17,77.32-19.42A209.41,209.41,0,0,1,505.57,148c23.34.2,45.49,4.6,65.75,13.23,25,10.64,41.1,26.89,47.38,48.28,9,30.79-.58,64.15-28.41,98.21-25.84,31.63-60.5,57.2-104.89,77.89a362.24,362.24,0,0,1-87.56,28A300.35,300.35,0,0,1,326,418.56c-6.31-.38-12.57-1-18.6-1.83-3.69-.51-7.36-1.11-10.9-1.78-19.6-3.7-37.2-9.9-52.4-18.32-21-11.61-34.54-24.92-42-40.75a76,76,0,0,1-3.46-9.47c-.7-2.24-1.43-4.55-2.29-6.76a2.88,2.88,0,0,0-2.4-2.12,2.19,2.19,0,0,0-.42,0c-2,0-4.1,1.34-6.26,4-2.9,3.61-2.53,7.76-2.3,10.24.86,9.41,2.93,14.14,5.56,20.17l.84,1.94c7.69,17.87,20.85,33.41,39.42,46.22,18.19,12.55,39.56,21.57,63.68,26.64,5.54,1.17,11.33,2.15,17.21,2.92C315.64,450.17,319.74,450.6,323.88,450.93Z"/><path class="cls-1" d="M97.68,590.62H90.42V571.91c0-12.37,7.87-20.09,20-20.09v7c-7.64,0-12.75,4.66-12.75,12.14Z"/><path class="cls-1" d="M120.44,582.37c3,0,4.89,1.76,4.89,4.51s-1.91,4.5-4.89,4.5-4.89-1.75-4.89-4.5S117.54,582.37,120.44,582.37Z"/><path class="cls-1" d="M184.22,536.4h-25v55H185c15.89,0,27-11.15,27-27.49C212,547.39,200.87,536.4,184.22,536.4Zm.54,48.18H166.51V543.19h17.71c12.68,0,20.47,8,20.47,20.7S196.9,584.58,184.76,584.58Z"/><path class="cls-1" d="M53.39,536.4h-25v55H54.15c15.89,0,27-11.15,27-27.49C81.19,547.39,70,536.4,53.39,536.4Zm.54,48.18H35.68V543.19H53.39c12.68,0,20.47,8,20.47,20.7S66.07,584.58,53.93,584.58Z"/><path class="cls-1" d="M225.78,536.4a4.2,4.2,0,1,1-4.35,4.2A4.07,4.07,0,0,1,225.78,536.4Zm-3.59,16h7.26v38.18h-7.26Z"/><path class="cls-1" d="M246.78,572.37c.15,7.25,5.2,12.37,13,12.37,6.18,0,10.38-3.36,11.76-8.55h7.41c-1.68,9.54-8.79,15.19-19.33,15.19-12.06,0-20.08-7.94-20.08-19.85s8-19.86,20.08-19.86c11.53,0,19.4,7,19.33,18.56v2.14Zm24.59-5.58c-1.14-5.57-5.42-8.93-11.68-8.93a12.41,12.41,0,0,0-12.37,8.93Z"/><path class="cls-1" d="M307.28,551.67c11.38,0,18.94,7,18.94,17.11,0,9.77-5.81,14.2-9.85,14.2v.69c4.27,0,10.23,2.59,10.23,10.62,0,10.15-7.18,16.19-18.94,16.19-12.14,0-18.94-6.5-18.94-18H296c0,7.33,4,11.15,11.68,11.15s11.69-3.36,11.69-9.7c0-7.18-7.64-7.18-12.07-7.18-11.38,0-18.94-7-18.94-17.56S295.9,551.67,307.28,551.67Zm0,28.33c7.48,0,11.68-3,11.68-10.76,0-6.73-4.5-10.77-11.68-10.77s-11.68,4.12-11.68,10.77S300.1,580,307.28,580Zm16.5-35.89c3,0,5,1.83,5,4.51s-2,4.5-5,4.5-4.89-1.75-4.89-4.5S320.8,544.11,323.78,544.11Z"/><path class="cls-1" d="M356,551.67c12.06,0,20.08,7.94,20.08,19.86s-8,19.85-20.08,19.85-20.09-7.94-20.09-19.85S344,551.67,356,551.67Zm0,32.91c7.71,0,12.83-5.26,12.83-13.05s-5.12-13.06-12.83-13.06-12.83,5.27-12.83,13.06S348.3,584.58,356,584.58Z"/><path class="cls-1" d="M407.12,537.16h7.34v22h32v-22h7.34v53.46h-7.34V565.87h-32v24.75h-7.34Z"/><path class="cls-1" d="M470.37,572.37c.15,7.25,5.2,12.37,13,12.37,6.18,0,10.38-3.36,11.76-8.55h7.41c-1.68,9.54-8.79,15.19-19.33,15.19-12.06,0-20.08-7.94-20.08-19.85s8-19.86,20.08-19.86c11.53,0,19.4,7,19.33,18.56v2.14ZM495,566.79c-1.14-5.57-5.42-8.93-11.68-8.93a12.41,12.41,0,0,0-12.37,8.93Z"/><path class="cls-1" d="M519.19,590.62h-7.26V571.91c0-12.37,7.87-20.09,20-20.09v7c-7.64,0-12.75,4.66-12.75,12.14Z"/><path class="cls-1" d="M548.21,590.62H541v-19.7c0-11.54,7.71-19.25,19.63-19.25,11.53,0,19.24,7.71,19.24,19.25v19.7H572.5V570.31c0-7.11-4.89-11.84-12.22-11.84-7.1,0-12.07,4.81-12.07,11.84Z"/><path class="cls-1" d="M609.32,551.67c12.07,0,20.08,7.94,20.08,19.86v19.09h-7.25v-7.56l-.76.07v.69c0,3.06-4.58,7.56-13.6,7.56-11,0-18.56-7.71-18.56-19.39C589.23,559.61,597.18,551.67,609.32,551.67Zm-.23,32.91c9.47,0,13-5.34,13-13.05,0-8-4.88-13.06-12.75-13.06-7.71,0-12.83,5.27-12.83,13.06C596.49,579.55,601.23,584.58,609.09,584.58Zm-8-40.7,12.37-9.39,4.28,2.59-13.06,8.86Z"/><path class="cls-1" d="M646.06,590.62h-7.25v-19.7c0-11.54,7.71-19.25,19.63-19.25,11.53,0,19.24,7.71,19.24,19.25v19.7h-7.33V570.31c0-7.11-4.89-11.84-12.22-11.84-7.1,0-12.07,4.81-12.07,11.84Z"/><path class="cls-1" d="M705.64,551.67c9,0,13.6,4.43,13.6,7.56v.69H720V533.34h7.26v38.19c0,11.91-8,19.85-20.09,19.85s-20.08-7.94-20.08-20.39C687.09,559.38,694.65,551.67,705.64,551.67Zm1.53,32.91c7.87,0,12.76-5,12.76-13.05,0-7.79-3.52-13.06-13-13.06-7.86,0-12.6,5-12.6,13.06C694.34,579.32,699.46,584.58,707.17,584.58Z"/><path class="cls-1" d="M743.91,572.37c.16,7.25,5.2,12.37,13,12.37,6.18,0,10.38-3.36,11.76-8.55h7.41c-1.68,9.54-8.79,15.19-19.33,15.19-12.06,0-20.08-7.94-20.08-19.85s8-19.86,20.08-19.86c11.53,0,19.4,7,19.33,18.56v2.14Zm24.59-5.58c-1.14-5.57-5.42-8.93-11.68-8.93a12.42,12.42,0,0,0-12.37,8.93Z"/><path class="cls-1" d="M807.09,558.93H784.25v-6.49h31.62v6.49l-22.07,25.2h22.83v6.49H785v-6.49Z"/><path class="cls-1" d="M876.43,545.2H847.76v-8.28h39.47v8.28l-28.66,37.1h28.66v8.28H847.76V582.3Z"/><path class="cls-1" d="M898.12,581c3.44,0,5.67,2.06,5.67,5.13s-2.23,5.21-5.67,5.21-5.6-2.07-5.6-5.21S894.74,581,898.12,581Z"/></svg>